Coordinates
version=1
nRows=13
nColumns=36
inDegrees=yes

Units are S.I. units (second, meters, Newtons, ...)
If the header above contains a line with 'inDegrees', this indicates whether rotational values are in degrees (yes) or radians (no).

endheader
time	pelvis_tilt	pelvis_list	pelvis_rotation	pelvis_tx	pelvis_ty	pelvis_tz	hip_flexion_r	hip_adduction_r	hip_rotation_r	knee_angle_r	knee_angle_r_beta	ankle_angle_r	subtalar_angle_r	mtp_angle_r	hip_flexion_l	hip_adduction_l	hip_rotation_l	knee_angle_l	knee_angle_l_beta	ankle_angle_l	subtalar_angle_l	mtp_angle_l	lumbar_extension	lumbar_bending	lumbar_rotation	arm_flex_r	arm_add_r	arm_rot_r	elbow_flex_r	pro_sup_r	arm_flex_l	arm_add_l	arm_rot_l	elbow_flex_l	pro_sup_l
      3.31666670	      2.78411204	      8.00890514	    -10.58707986	      1.12667982	      0.97475764	      0.20228109	     -3.51745637	     -0.71951897	     13.62866021	      6.84327879	      0.11943775	     11.47248290	    -11.53084299	     -7.49999987	     43.77901507	     -2.16940919	     -6.34222518	     23.49121149	      0.40999899	      2.16792340	      2.81657514	     -7.49999987	     -1.35675945	      2.92282783	     -4.19648973	     34.59975719	    -13.34267800	     64.06064330	    128.53871854	     88.40639324	     32.23549625	     -7.07473917	     43.76813211	    140.14296796	    101.17041893
      3.33333330	      2.60285001	      7.93676078	    -10.38415821	      1.12657685	      0.97490837	      0.20191712	     -3.18327465	     -0.62199790	     13.25626963	      7.06771660	      0.12335493	     11.66033958	    -11.30880169	     -7.49999987	     43.95141276	     -2.03292787	     -6.17056407	     23.45525139	      0.40937136	      2.14030870	      2.60152713	     -7.49999987	     -1.29556717	      3.19425219	     -5.11290194	     35.24874200	    -12.80399673	     64.73204756	    127.84618627	     89.33574105	     31.39189913	     -7.62899595	     41.48319860	    140.01133104	    101.48369371
      3.35000000	      2.55354664	      7.94768251	    -10.26828645	      1.12690692	      0.97473168	      0.20191156	     -3.12510342	     -0.66328738	     13.25083197	      7.05949752	      0.12321148	     11.70983920	    -11.39174215	     -7.49999987	     43.92899633	     -1.87576018	     -6.09539944	     23.32316843	      0.40706608	      2.22505091	      2.43346075	     -7.49999987	     -1.36533658	      3.19232173	     -5.31336996	     35.24964831	    -12.75569334	     65.13559332	    127.71131176	     89.59003539	     31.42016271	     -7.81633951	     41.06282706	    139.77543764	    101.63860694
      3.36666670	      2.41199335	      8.02424312	    -10.07606463	      1.12619591	      0.97189834	      0.20126316	     -2.98366894	     -0.73738704	     13.00479591	      7.06871701	      0.12337239	     11.93382177	    -11.04074321	     -7.49999987	     44.08065140	     -1.64393531	     -6.04797219	     23.35110043	      0.40755359	      2.35496017	      2.30979569	     -7.49999987	     -1.32804189	      3.00365747	     -5.42651158	     35.20897267	    -12.53544179	     65.34586372	    127.91785501	     88.50589547	     31.77860878	     -7.87303892	     40.71182686	    139.53642211	    100.11495466
      3.38333330	      2.32466565	      8.10271713	     -9.86491914	      1.12648949	      0.97179154	      0.20123490	     -2.92480879	     -0.78231439	     12.76475033	      7.07090955	      0.12341065	     12.13626889	    -10.84416553	     -7.49999987	     44.21586809	     -1.38830239	     -5.96569099	     23.58137238	      0.41157259	      2.57452122	      2.22921570	     -7.49999987	     -1.36548109	      2.84345615	     -5.54129340	     35.14357255	    -12.48538134	     65.91686393	    128.06229144	     87.32280808	     31.94961604	     -7.91759273	     40.49488383	    139.46433840	     98.23258269
      3.40000000	      2.20352851	      8.14310380	     -9.66963941	      1.12639816	      0.97221601	      0.20099377	     -2.80118064	     -0.75278825	     12.51179368	      7.12324456	      0.12432407	     12.33221473	    -10.65353566	     -7.49999987	     44.31865417	     -1.14039929	     -5.84918934	     23.79508121	      0.41530251	      2.44052782	      2.22513922	     -7.49999987	     -1.33084434	      2.79518927	     -6.02831816	     35.44521931	    -12.03620227	     66.82556756	    127.90865192	     91.01342731	     31.29186730	     -8.29456371	     39.32558749	    139.65485527	    101.58864224
      3.41666670	      2.15018673	      8.08631226	     -9.68451035	      1.12686506	      0.97212695	      0.20108055	     -2.74769360	     -0.61565795	     12.57995676	      7.23261709	      0.12623298	     12.40258409	    -10.61650562	     -7.49999987	     44.32527959	     -1.07931448	     -5.77386469	     23.99548843	      0.41880028	      2.31833942	      2.32580292	     -7.49999987	     -1.48597341	      2.71190026	     -5.88754345	     35.24994132	    -12.00051696	     67.40373987	    128.06944383	     89.01561582	     31.42568514	     -8.23446775	     39.58805215	    139.45646900	     98.93880513
      3.43333330	      2.04387881	      7.99288367	     -9.53309828	      1.12682216	      0.97223376	      0.20077821	     -2.69838904	     -0.45204091	     12.67428672	      7.29424352	      0.12730857	     12.46036428	    -10.59947192	     -7.49999987	     44.40798463	     -1.00466214	     -5.71971150	     24.24894049	      0.42322385	      2.38764865	      2.49215850	     -7.49999987	     -1.67554427	      2.69721077	     -6.00268204	     35.18929679	    -12.05954306	     67.90742182	    128.15265478	     87.91582857	     31.57908537	     -8.26524835	     39.62385476	    139.64164943	     97.29694095
      3.45000000	      2.05999258	      7.88128199	     -9.45005324	      1.12710039	      0.97227476	      0.20058531	     -2.63021905	     -0.28341331	     12.70502061	      7.45660579	      0.13014232	     12.44808459	    -10.65086420	     -7.49999987	     44.33647189	     -0.93261268	     -5.62438595	     24.51533748	      0.42787336	      2.31832887	      2.53394821	     -7.49999987	     -2.10847438	      2.72193715	     -6.11032572	     35.20683544	    -12.01841222	     68.30434422	    127.98867007	     87.07588645	     31.67453498	     -8.42043696	     40.25410226	    139.68032253	     96.14574205
      3.46666670	      1.84473328	      7.83392588	     -9.16814428	      1.12702756	      0.97242861	      0.20002501	     -2.23393088	     -0.12040838	     12.46746277	      7.84210494	      0.13687055	     12.57346285	    -10.49729957	     -7.49999987	     44.44060913	     -0.79398806	     -5.53808133	     24.84398215	      0.43360929	      2.07512239	      2.46083914	     -7.49999987	     -2.29324489	      2.66907773	     -6.29567245	     34.95359741	    -12.14433492	     67.68159247	    127.23436532	     92.68459058	     31.44036752	     -8.52816478	     40.24547334	    139.62845147	    101.81933718
      3.48333330	      1.72442895	      7.74097900	     -9.06979576	      1.12247435	      0.97172895	      0.19639124	     -1.79807953	      0.01701521	     12.30094770	      8.26925301	      0.14432569	     12.26964143	    -10.44323389	     -7.49999987	     44.53208952	     -0.70788981	     -5.51832217	     24.87364158	      0.43412694	      1.77250702	      2.63770246	     -7.49999987	     -2.83311523	      2.74414743	     -6.45861554	     35.09233477	    -12.49789000	     67.61486561	    127.16278056	     92.69667496	     31.48920713	     -8.55170340	     40.31694204	    139.57427774	    101.81420397
      3.50000000	      1.33399067	      7.41992649	     -8.88757319	      1.11710804	      0.97108364	      0.19837364	     -0.94052659	      0.50380895	     12.07180907	      8.90864840	      0.15548525	     12.21658435	    -10.29172463	     -7.49999987	     45.11474930	     -0.89260004	     -5.25023730	     25.16129182	      0.43914739	      1.52466244	      2.75678402	     -7.49999987	     -3.40806456	      3.09143850	     -6.33332901	     35.89593720	    -12.83423785	     67.88607657	    127.03734802	     92.85454779	     32.33014705	     -8.79177337	     41.52136281	    139.61732393	    101.88504045
      3.51666670	      1.16252770	      7.22557472	     -8.74680543	      1.11725837	      0.96945616	      0.19768609	     -0.42752075	      0.84862066	     11.88951495	      9.45308802	      0.16498751	     12.26682480	    -10.03260004	     -7.49999987	     45.40251661	     -0.94876386	     -5.06620626	     25.37563655	      0.44288841	      1.25725961	      2.77435379	     -7.49999987	     -4.09905645	      3.29187006	     -6.15420524	     36.32857580	    -13.19215577	     67.22137445	    126.83380756	     90.60556074	     32.94040341	     -8.94817032	     42.47221085	    139.62962812	     99.57784012
